<?xml version="1.0" encoding="UTF-8" standalone="yes"?>
<!DOCTYPE svg PUBLIC "-//W3C//DTD SVG 1.1//EN" "http://www.w3.org/Graphics/SVG/1.1/DTD/svg11.dtd">

<svg width="700" height="375" viewBox="0 0 700 375" xmlns="http://www.w3.org/2000/svg" xmlns:xlink="http://www.w3.org/1999/xlink" version="1.1" baseProfile="full">
    <defs>
        <linearGradient id="105553176184304140428163530080" x1="120.326042%" x2="171.658890%" y1="141.608978%" y2="1.111454%">
            <stop offset="0%" style="stop-color:#0d6bea;stop-opacity:1.000000"></stop>
            <stop offset="100%" style="stop-color:#31eacc;stop-opacity:1.000000"></stop>
        </linearGradient>
        <linearGradient id="105553176184304140428163613072" x1="7.841877%" x2="35.400833%" y1="228.419800%" y2="-1.048386%">
            <stop offset="0%" style="stop-color:#0d6bea;stop-opacity:1.000000"></stop>
            <stop offset="100%" style="stop-color:#31eacc;stop-opacity:1.000000"></stop>
        </linearGradient>
        <linearGradient id="105553176184304140428163613632" x1="-202.444794%" x2="-112.001740%" y1="130.012878%" y2="-130.540115%">
            <stop offset="0%" style="stop-color:#0d6bea;stop-opacity:1.000000"></stop>
            <stop offset="100%" style="stop-color:#31eacc;stop-opacity:1.000000"></stop>
        </linearGradient>
        <linearGradient id="105553176184304140428163616656" x1="35.110649%" x2="67.002449%" y1="98.439369%" y2="-98.838524%">
            <stop offset="0%" style="stop-color:#0d6bea;stop-opacity:1.000000"></stop>
            <stop offset="100%" style="stop-color:#31eacc;stop-opacity:1.000000"></stop>
        </linearGradient>
    </defs>
    <g transform="scale(1,-1) translate(0,-375)">
        <path d="M 158.805385 1.024213 L 167.985585 1.081713 L 176.524385 1.193713 L 184.433785 1.378413 L 191.725485 1.653813 L 195.143485 1.831313 L 198.411585 2.038313 L 201.531285 2.277113 L 204.504085 2.549913 L 207.331385 2.859113 L 210.014685 3.206913 L 212.555585 3.595513 L 214.955485 4.027313 L 217.215885 4.504413 L 219.338385 5.029313 L 221.324285 5.604113 L 223.175285 6.231213 L 224.892685 6.912713 L 226.478185 7.651013 L 227.932985 8.448313 L 229.258885 9.306913 L 230.457185 10.229113 L 231.529485 11.217213 L 232.477085 12.273313 L 233.301685 13.399913 L 234.004785 14.599113 L 234.587685 15.873213 L 235.052085 17.224513 L 235.399285 18.655313 L 235.630885 20.167913 L 235.748385 21.764413 L 235.753285 23.447213 L 235.646985 25.218613 L 235.430985 27.080813 L 235.106885 29.036013 L 234.676185 31.086713 L 234.140185 33.234913 L 233.500585 35.483113 L 232.758785 37.833513 L 231.916285 40.288213 L 230.974585 42.849713 L 229.935085 45.520213 L 228.799385 48.302013 L 227.568985 51.197213 L 226.245285 54.208313 L 223.324185 60.586913 L 220.048085 67.455913 L 216.428685 74.833513 L 212.478085 82.737813 L 203.630985 100.199513 L 168.803085 168.721413 L 159.915485 186.158813 L 155.868585 194.005613 L 152.061785 201.271213 L 148.476585 207.955513 L 145.094485 214.058613 L 141.897085 219.580513 L 140.361785 222.123413 L 138.865785 224.521113 L 137.406685 226.773413 L 135.982285 228.880413 L 134.590085 230.842213 L 133.227985 232.658613 L 131.893485 234.329613 L 130.584485 235.855413 L 129.298485 237.235913 L 128.033285 238.471013 L 126.786485 239.560913 L 125.555885 240.505413 L 124.339185 241.304613 L 123.133985 241.958513 L 121.937985 242.467113 L 120.748985 242.830413 L 119.564585 243.048313 L 118.382385 243.121013 L 117.200285 243.048313 L 116.015885 242.830413 L 114.826885 242.467113 L 113.630885 241.958513 L 112.425685 241.304613 L 111.208885 240.505413 L 109.978385 239.560913 L 108.731585 238.471013 L 107.466385 237.235913 L 106.180385 235.855413 L 104.871385 234.329613 L 103.536885 232.658613 L 102.174785 230.842213 L 100.782585 228.880413 L 99.358085 226.773413 L 97.899085 224.521113 L 96.402985 222.123413 L 94.867785 219.580513 L 91.670285 214.058613 L 88.288185 207.955513 L 84.702985 201.271213 L 80.896285 194.005613 L 76.849385 186.158813 L 67.961785 168.721413 L 33.133785 100.199513 L 24.286685 82.737813 L 20.336185 74.833513 L 16.716785 67.455913 L 13.440585 60.586913 L 10.519485 54.208313 L 9.195885 51.197213 L 7.965485 48.302013 L 6.829785 45.520213 L 5.790285 42.849713 L 4.848585 40.288213 L 4.006085 37.833513 L 3.264285 35.483113 L 2.624585 33.234913 L 2.088685 31.086713 L 1.657885 29.036013 L 1.333785 27.080813 L 1.117885 25.218613 L 1.011585 23.447213 L 1.016485 21.764413 L 1.133985 20.167913 L 1.365585 18.655313 L 1.712785 17.224513 L 2.177185 15.873213 L 2.760085 14.599113 L 3.463085 13.399913 L 4.287685 12.273313 L 5.235385 11.217213 L 6.307685 10.229113 L 7.505985 9.306913 L 8.831785 8.448313 L 10.286685 7.651013 L 11.872085 6.912713 L 13.589585 6.231213 L 15.440485 5.604113 L 17.426485 5.029313 L 19.548885 4.504413 L 21.809385 4.027313 L 24.209285 3.595513 L 26.750185 3.206913 L 29.433485 2.859113 L 32.260785 2.549913 L 35.233585 2.277113 L 38.353185 2.038313 L 41.621285 1.831313 L 45.039385 1.653813 L 52.331085 1.378413 L 60.240385 1.193713 L 68.779285 1.081713 L 77.959485 1.024213 L 98.291985 0.999913 L 138.472885 0.999913 Z M 117.192085 75.677713 L 116.045485 75.820513 L 114.946985 76.053913 L 113.901285 76.374213 L 112.912985 76.777613 L 111.986585 77.260513 L 111.126785 77.819113 L 110.337985 78.449613 L 109.624785 79.148413 L 108.991885 79.911713 L 108.443785 80.735813 L 107.985185 81.616913 L 107.620385 82.551313 L 107.354185 83.535213 L 107.191185 84.565113 L 107.135785 85.637013 L 107.135785 156.600913 L 107.191185 157.610813 L 107.354185 158.590413 L 107.620385 159.534713 L 107.985185 160.439113 L 108.443785 161.298713 L 108.991885 162.108713 L 109.624785 162.864313 L 110.337985 163.560813 L 111.126785 164.193313 L 111.986585 164.757013 L 112.912985 165.247213 L 113.901285 165.659013 L 114.946985 165.987713 L 116.045485 166.228413 L 117.192085 166.376313 L 118.382385 166.426713 L 119.538385 166.376313 L 120.659585 166.228413 L 121.740485 165.987713 L 122.775585 165.659013 L 123.759485 165.247213 L 124.686685 164.757013 L 125.551585 164.193313 L 126.348785 163.560813 L 127.072685 162.864313 L 127.717985 162.108713 L 128.278985 161.298713 L 128.750385 160.439113 L 129.126585 159.534713 L 129.401985 158.590413 L 129.571385 157.610813 L 129.628985 156.600913 L 129.628985 85.637013 L 129.571385 84.565113 L 129.401985 83.535213 L 129.126585 82.551313 L 128.750385 81.616913 L 128.278985 80.735813 L 127.717985 79.911713 L 127.072685 79.148413 L 126.348785 78.449613 L 125.551585 77.819113 L 124.686685 77.260513 L 123.759485 76.777613 L 122.775585 76.374213 L 121.740485 76.053913 L 120.659585 75.820513 L 119.538385 75.677713 L 118.382385 75.629313 Z M 117.192085 39.106013 L 116.045485 39.253913 L 114.946985 39.494613 L 113.901285 39.823213 L 112.912985 40.235013 L 111.986585 40.725213 L 111.126785 41.288913 L 110.337985 41.921413 L 109.624785 42.617913 L 108.991885 43.373613 L 108.443785 44.183613 L 107.985185 45.043213 L 107.620385 45.947513 L 107.354185 46.891913 L 107.191185 47.871413 L 107.135785 48.881413 L 107.135785 52.702513 L 107.191185 53.714513 L 107.354185 54.699813 L 107.620385 55.653113 L 107.985185 56.569113 L 108.443785 57.442513 L 108.991885 58.267913 L 109.624785 59.040013 L 110.337985 59.753413 L 111.126785 60.402913 L 111.986585 60.983013 L 112.912985 61.488613 L 113.901285 61.914213 L 114.946985 62.254413 L 116.045485 62.504113 L 117.192085 62.657813 L 118.382385 62.710213 L 119.538385 62.657813 L 120.659585 62.504113 L 121.740485 62.254413 L 122.775585 61.914213 L 123.759485 61.488613 L 124.686685 60.983013 L 125.551585 60.402913 L 126.348785 59.753413 L 127.072685 59.040013 L 127.717985 58.267913 L 128.278985 57.442513 L 128.750385 56.569113 L 129.126585 55.653113 L 129.401985 54.699813 L 129.571385 53.714513 L 129.628985 52.702513 L 129.628985 48.881413 L 129.571385 47.871413 L 129.401985 46.891913 L 129.126585 45.947513 L 128.750385 45.043213 L 128.278985 44.183613 L 127.717985 43.373613 L 127.072685 42.617913 L 126.348785 41.921413 L 125.551585 41.288913 L 124.686685 40.725213 L 123.759485 40.235013 L 122.775585 39.823213 L 121.740485 39.494613 L 120.659585 39.253913 L 119.538385 39.106013 L 118.382385 39.055613 Z" transform="scale(1.000000,1.000000) translate(4.341015,13.294687)" fill="url(#105553176184304140428163530080)" opacity="1.000000"></path>
        <path d="M 60.806581 26.701209 L 60.806581 3.406480 L 1.000000 3.406480 L 1.000000 26.701209 L 16.112911 26.701209 L 16.112911 125.270639 L 1.000000 125.270639 L 1.000000 148.469109 L 47.075949 148.469109 L 47.075949 26.701209 Z M 174.798478 47.204420 L 102.551391 47.204420 Q 103.657213 35.557056 110.246074 28.770782 Q 116.834935 21.984508 127.248099 21.984508 Q 138.767086 21.984508 149.733162 33.920650 L 173.692655 25.834876 Q 165.767592 13.417438 154.064301 7.208719 Q 142.361010 1.000000 126.326580 1.000000 Q 110.292150 1.000000 97.989872 7.304978 Q 85.687593 13.609956 78.914429 25.161062 Q 72.141265 36.712167 72.141265 52.306159 Q 72.141265 67.707632 79.190885 80.221329 Q 86.240505 92.735026 98.266327 99.810078 Q 110.292150 106.885130 124.391390 106.885130 Q 139.688605 106.885130 151.023288 99.521301 Q 162.357972 92.157471 168.486073 78.633052 Q 174.614174 65.108633 174.798478 47.204420 Z M 122.916960 85.419327 Q 114.623289 85.419327 109.601011 80.413848 Q 104.578732 75.408369 103.288606 65.108633 L 143.651137 65.108633 Q 142.361010 74.156999 136.601517 79.788163 Q 130.842023 85.419327 122.916960 85.419327 Z M 268.609109 105.730020 L 268.609109 75.408369 Q 255.892147 74.542036 248.381768 71.221093 Q 240.871388 67.900150 236.770629 59.814377 Q 232.669869 51.728603 232.669869 36.712167 L 232.669869 26.701209 L 251.929616 26.701209 L 251.929616 3.406480 L 184.013668 3.406480 L 184.013668 26.701209 L 201.798984 26.701209 L 201.798984 80.895144 L 184.935187 80.895144 L 184.935187 104.574909 L 230.089616 104.574909 L 230.089616 78.873700 Q 233.499236 90.521065 242.714426 98.221801 Q 251.929616 105.922538 265.568096 105.922538 Q 267.595438 105.922538 268.609109 105.730020 Z M 339.934677 104.574909 L 339.934677 80.895144 L 322.057209 80.895144 L 322.057209 36.712167 Q 322.057209 31.995465 323.808095 29.637115 Q 325.558981 27.278764 330.350880 27.278764 Q 334.313412 27.278764 339.934677 29.396467 L 339.934677 6.968071 Q 327.494171 1.866333 316.528096 1.866333 Q 303.903286 1.866333 297.590881 8.556348 Q 291.278476 15.246363 291.278476 27.471283 L 291.278476 80.895144 L 279.022273 80.895144 L 279.022273 104.574909 L 291.278476 104.574909 L 291.278476 120.265160 L 322.057209 143.367371 L 322.057209 104.574909 Z M 411.352398 101.013318 L 411.352398 104.574909 L 433.376701 104.574909 L 433.376701 74.927073 L 411.352398 74.927073 Q 408.495689 85.611845 390.157461 85.611845 Q 376.979740 85.611845 376.979740 77.911108 Q 376.979740 74.542036 380.481512 72.905629 Q 383.983284 71.269223 390.710373 70.210371 Q 409.601512 67.707632 420.475435 63.039060 Q 431.349359 58.370489 435.680498 51.487955 Q 440.011638 44.605422 440.011638 34.786982 Q 440.011638 18.807954 429.552397 9.903977 Q 419.093157 1.000000 401.123537 1.000000 Q 383.614677 1.000000 377.348348 8.315700 L 377.348348 3.406480 L 354.863285 3.406480 L 354.863285 38.252314 L 377.348348 38.252314 Q 378.269867 31.032873 384.029360 26.893727 Q 389.788854 22.754581 398.266828 22.754581 Q 406.560499 22.754581 410.523031 24.727895 Q 414.485562 26.701209 414.485562 31.610429 Q 414.485562 34.979501 412.826828 36.856555 Q 411.168094 38.733610 406.422271 40.177498 Q 401.676448 41.621386 391.908347 43.450311 Q 370.160500 47.011902 360.622778 54.953287 Q 351.085057 62.894672 351.085057 76.370961 Q 351.085057 90.136028 360.991386 98.029283 Q 370.897715 105.922538 387.116449 105.922538 Q 400.202018 105.922538 411.352398 101.013318 Z" transform="scale(1.000000,1.000000) translate(254.647318,17.574993)" fill="url(#105553176184304140428163613072)" opacity="1.000000"></path>
        <path d="M 68.898824 1.021085 L 70.596524 1.084285 L 72.283124 1.188985 L 73.958024 1.334585 L 75.620624 1.520685 L 77.270524 1.746785 L 78.907224 2.012385 L 80.530124 2.316785 L 82.138724 2.659785 L 83.732424 3.040585 L 85.310824 3.458885 L 86.873424 3.914085 L 88.419624 4.405685 L 89.948924 4.933085 L 91.460824 5.495985 L 92.954724 6.093685 L 94.430224 6.725785 L 95.886724 7.391785 L 97.323724 8.091085 L 98.740724 8.823185 L 100.137124 9.587685 L 101.512524 10.383985 L 102.866424 11.211485 L 104.198124 12.069885 L 105.507224 12.958585 L 106.793224 13.877085 L 108.055524 14.824785 L 109.293724 15.801385 L 111.695424 17.838585 L 113.994124 19.984885 L 116.185824 22.235985 L 117.240124 23.399585 L 118.266224 24.587885 L 119.263324 25.800385 L 120.231124 27.036485 L 121.169124 28.295785 L 122.076624 29.577785 L 122.953124 30.881885 L 123.798224 32.207685 L 124.611424 33.554585 L 125.392024 34.922085 L 126.139624 36.309685 L 126.853724 37.716985 L 127.533824 39.143285 L 128.179324 40.588185 L 128.789724 42.051085 L 129.364424 43.531685 L 129.903124 45.029285 L 130.405124 46.543385 L 130.869924 48.073585 L 131.297024 49.619285 L 131.685924 51.179985 L 132.036124 52.755285 L 132.347024 54.344485 L 132.618224 55.947185 L 132.849124 57.562885 L 133.039124 59.191085 L 133.187824 60.831285 L 133.294724 62.482885 L 133.359224 64.145485 L 133.380824 65.818385 L 133.359224 67.491385 L 133.294724 69.153985 L 133.187824 70.805585 L 133.039124 72.445785 L 132.849124 74.073885 L 132.618224 75.689685 L 132.347024 77.292385 L 132.036124 78.881585 L 131.685924 80.456885 L 131.297024 82.017585 L 130.869924 83.563285 L 130.405124 85.093485 L 129.903124 86.607585 L 129.364424 88.105185 L 128.789724 89.585785 L 128.179324 91.048685 L 127.533824 92.493585 L 126.853724 93.919885 L 126.139624 95.327185 L 125.392024 96.714785 L 124.611424 98.082285 L 123.798224 99.429185 L 122.953124 100.754985 L 122.076624 102.059085 L 121.169124 103.341085 L 120.231124 104.600385 L 119.263324 105.836485 L 118.266224 107.048985 L 117.240124 108.237285 L 116.185824 109.400885 L 113.994124 111.651985 L 111.695424 113.798285 L 109.293724 115.835485 L 108.055524 116.811985 L 106.793224 117.759785 L 105.507224 118.678285 L 104.198124 119.566885 L 102.866424 120.425285 L 101.512524 121.252885 L 100.137124 122.049185 L 98.740724 122.813685 L 97.323724 123.545785 L 95.886724 124.245085 L 94.430224 124.911085 L 92.954724 125.543185 L 91.460824 126.140885 L 89.948924 126.703785 L 88.419624 127.231185 L 86.873424 127.722785 L 85.310824 128.177985 L 83.732424 128.596285 L 82.138724 128.977085 L 80.530124 129.319985 L 78.907224 129.624485 L 77.270524 129.890085 L 75.620624 130.116185 L 73.958024 130.302285 L 72.283124 130.447885 L 70.596524 130.552585 L 68.898824 130.615785 L 67.190424 130.636885 L 65.482024 130.615785 L 63.784224 130.552585 L 62.097724 130.447885 L 60.422824 130.302285 L 58.760124 130.116185 L 57.110224 129.890085 L 55.473624 129.624485 L 53.850724 129.319985 L 52.242124 128.977085 L 50.648424 128.596285 L 49.069924 128.177985 L 47.507424 127.722785 L 45.961224 127.231185 L 44.431924 126.703785 L 42.920024 126.140885 L 41.426124 125.543185 L 39.950624 124.911085 L 38.494124 124.245085 L 37.057124 123.545785 L 35.640124 122.813685 L 34.243624 122.049185 L 32.868224 121.252885 L 31.514424 120.425285 L 30.182724 119.566885 L 28.873624 118.678285 L 27.587624 117.759785 L 26.325324 116.811985 L 25.087124 115.835485 L 22.685424 113.798285 L 20.386724 111.651985 L 18.195024 109.400885 L 17.140624 108.237285 L 16.114624 107.048985 L 15.117424 105.836485 L 14.149624 104.600385 L 13.211724 103.341085 L 12.304224 102.059085 L 11.427724 100.754985 L 10.582524 99.429185 L 9.769424 98.082285 L 8.988824 96.714785 L 8.241124 95.327185 L 7.527024 93.919885 L 6.847024 92.493585 L 6.201524 91.048685 L 5.591124 89.585785 L 5.016324 88.105185 L 4.477724 86.607585 L 3.975724 85.093485 L 3.510924 83.563285 L 3.083824 82.017585 L 2.694924 80.456885 L 2.344724 78.881585 L 2.033724 77.292385 L 1.762624 75.689685 L 1.531724 74.073885 L 1.341724 72.445785 L 1.192924 70.805585 L 1.086124 69.153985 L 1.021524 67.491385 L 0.999924 65.818385 L 1.021524 64.145485 L 1.086124 62.482885 L 1.192924 60.831285 L 1.341724 59.191085 L 1.531724 57.562885 L 1.762624 55.947185 L 2.033724 54.344485 L 2.344724 52.755285 L 2.694924 51.179985 L 3.083824 49.619285 L 3.510924 48.073585 L 3.975724 46.543385 L 4.477724 45.029285 L 5.016324 43.531685 L 5.591124 42.051085 L 6.201524 40.588185 L 6.847024 39.143285 L 7.527024 37.716985 L 8.241124 36.309685 L 8.988824 34.922085 L 9.769424 33.554585 L 10.582524 32.207685 L 11.427724 30.881885 L 12.304224 29.577785 L 13.211724 28.295785 L 14.149624 27.036485 L 15.117424 25.800385 L 16.114624 24.587885 L 17.140624 23.399585 L 18.195024 22.235985 L 20.386724 19.984885 L 22.685424 17.838585 L 25.087124 15.801385 L 26.325324 14.824785 L 27.587624 13.877085 L 28.873624 12.958585 L 30.182724 12.069885 L 31.514424 11.211485 L 32.868224 10.383985 L 34.243624 9.587685 L 35.640124 8.823185 L 37.057124 8.091085 L 38.494124 7.391785 L 39.950624 6.725785 L 41.426124 6.093685 L 42.920024 5.495985 L 44.431924 4.933085 L 45.961224 4.405685 L 47.507424 3.914085 L 49.069924 3.458885 L 50.648424 3.040585 L 52.242124 2.659785 L 53.850724 2.316785 L 55.473624 2.012385 L 57.110224 1.746785 L 58.760124 1.520685 L 60.422824 1.334585 L 62.097724 1.188985 L 63.784224 1.084285 L 65.482024 1.021085 L 67.190424 0.999985 Z M 66.392124 90.600285 L 65.617824 90.695385 L 64.871424 90.849685 L 64.156524 91.060085 L 63.477124 91.323185 L 62.836824 91.635785 L 62.239524 91.994485 L 61.689024 92.395985 L 61.189124 92.837085 L 60.743524 93.314485 L 60.356024 93.824785 L 60.030524 94.364685 L 59.770824 94.931085 L 59.580524 95.520485 L 59.463624 96.129685 L 59.423824 96.755285 L 59.423824 99.117785 L 59.463624 99.742185 L 59.580524 100.347785 L 59.770824 100.931585 L 60.030524 101.490785 L 60.356024 102.022185 L 60.743524 102.522985 L 61.189124 102.990185 L 61.689024 103.420785 L 62.239524 103.811885 L 62.836824 104.160385 L 63.477124 104.463385 L 64.156524 104.717985 L 64.871424 104.921185 L 65.617824 105.069985 L 66.392124 105.161485 L 67.190424 105.192585 L 68.012424 105.161485 L 68.804224 105.069985 L 69.562824 104.921185 L 70.284924 104.717985 L 70.967424 104.463385 L 71.607124 104.160385 L 72.200924 103.811885 L 72.745724 103.420785 L 73.238124 102.990185 L 73.675224 102.522985 L 74.053724 102.022185 L 74.370424 101.490785 L 74.622324 100.931585 L 74.806124 100.347785 L 74.918724 99.742185 L 74.957024 99.117785 L 74.957024 96.755285 L 74.918724 96.129685 L 74.806124 95.520485 L 74.622324 94.931085 L 74.370424 94.364685 L 74.053724 93.824785 L 73.675224 93.314485 L 73.238124 92.837085 L 72.745724 92.395985 L 72.200924 91.994485 L 71.607124 91.635785 L 70.967424 91.323185 L 70.284924 91.060085 L 69.562824 90.849685 L 68.804224 90.695385 L 68.012424 90.600285 L 67.190424 90.567885 Z M 66.392124 26.475385 L 65.617824 26.566785 L 64.871424 26.715585 L 64.156524 26.918785 L 63.477124 27.173385 L 62.836824 27.476485 L 62.239524 27.824985 L 61.689024 28.216085 L 61.189124 28.646685 L 60.743524 29.113885 L 60.356024 29.614685 L 60.030524 30.146085 L 59.770824 30.705185 L 59.580524 31.289085 L 59.463624 31.894685 L 59.423824 32.519085 L 59.423824 76.393185 L 59.463624 77.055985 L 59.580524 77.692685 L 59.770824 78.300985 L 60.030524 78.878685 L 60.356024 79.423485 L 60.743524 79.932885 L 61.189124 80.404885 L 61.689024 80.836885 L 62.239524 81.226685 L 62.836824 81.572085 L 63.477124 81.870585 L 64.156524 82.120085 L 64.871424 82.318085 L 65.617824 82.462385 L 66.392124 82.550685 L 67.190424 82.580585 L 68.012424 82.550685 L 68.804224 82.462385 L 69.562824 82.318085 L 70.284924 82.120085 L 70.967424 81.870585 L 71.607124 81.572085 L 72.200924 81.226685 L 72.745724 80.836885 L 73.238124 80.404885 L 73.675224 79.932885 L 74.053724 79.423485 L 74.370424 78.878685 L 74.622324 78.300985 L 74.806124 77.692685 L 74.918724 77.055985 L 74.957024 76.393185 L 74.957024 32.519085 L 74.918724 31.894685 L 74.806124 31.289085 L 74.622324 30.705185 L 74.370424 30.146085 L 74.053724 29.614685 L 73.675224 29.113885 L 73.238124 28.646685 L 72.745724 28.216085 L 72.200924 27.824985 L 71.607124 27.476485 L 70.967424 27.173385 L 70.284924 26.918785 L 69.562824 26.715585 L 68.804224 26.566785 L 68.012424 26.475385 L 67.190424 26.444185 Z" transform="scale(1.000000,1.000000) translate(561.278076,187.847015)" fill="url(#105553176184304140428163613632)" opacity="1.000000"></path>
        <path d="M 66.079834 144.140488 L 89.598784 102.858592 L 113.869481 144.140488 L 97.116256 144.140488 L 97.116256 172.858329 L 168.532245 172.858329 L 168.532245 144.140488 L 148.557247 144.140488 L 106.566793 78.067018 L 106.566793 32.522318 L 129.226603 32.522318 L 129.226603 3.804477 L 41.701744 3.804477 L 41.701744 32.522318 L 64.576339 32.522318 L 64.576339 78.067018 L 20.760214 144.140488 L 1.000000 144.140488 L 1.000000 172.858329 L 81.759134 172.858329 L 81.759134 144.140488 Z M 295.899709 54.845952 L 211.704016 54.845952 Q 212.992726 41.272285 220.671287 33.363661 Q 228.349848 25.455036 240.485197 25.455036 Q 253.909255 25.455036 266.688958 39.365241 L 294.610999 29.942199 Q 285.375247 15.471100 271.736404 8.235550 Q 258.097561 1.000000 239.411272 1.000000 Q 220.724983 1.000000 206.388089 8.347729 Q 192.051195 15.695458 184.157849 29.156946 Q 176.264503 42.618434 176.264503 60.791442 Q 176.264503 78.740093 184.480026 93.323371 Q 192.695550 107.906650 206.710267 116.151811 Q 220.724983 124.396973 237.156030 124.396973 Q 254.983180 124.396973 268.192453 115.815274 Q 281.401726 107.233576 288.543325 91.472417 Q 295.684924 75.711258 295.899709 54.845952 Z M 235.437751 99.381041 Q 225.772429 99.381041 219.919540 93.547730 Q 214.066650 87.714418 212.563156 75.711258 L 259.601056 75.711258 Q 258.097561 86.256090 251.385532 92.818566 Q 244.673503 99.381041 235.437751 99.381041 Z M 380.095401 121.704675 L 380.095401 94.108625 L 359.261263 94.108625 L 359.261263 42.618434 Q 359.261263 37.121659 361.301720 34.373272 Q 363.342177 31.624885 368.926585 31.624885 Q 373.544461 31.624885 380.095401 34.092825 L 380.095401 7.955102 Q 365.597418 2.009612 352.817715 2.009612 Q 338.104947 2.009612 330.748564 9.806057 Q 323.392180 17.602502 323.392180 31.849243 L 323.392180 94.108625 L 309.108982 94.108625 L 309.108982 121.704675 L 323.392180 121.704675 L 323.392180 139.989863 L 359.261263 166.912839 L 359.261263 121.704675 Z" transform="scale(1.000000,1.000000) translate(155.425841,187.846989)" fill="url(#105553176184304140428163616656)" opacity="1.000000"></path>
    </g>
</svg>